#!OML:ASF H:\Terrain\Patient Classification 1\Terrain2\Thursday\justin.ASF
:FULLY-SPECIFIED
:DEGREES
1083
root -0.780241 17.4135 -1.06794 -178.668 -2.5031 -171.863
lowerback 9.88858 0.484621 6.91661
upperback 4.50115 0.543492 4.81801
thorax -0.785712 -0.0267206 1.06994
lowerneck -9.68433 -1.26058 -11.0075
upperneck 38.0647 -8.29302 8.18538
head 15.8571 -5.74531 3.71192
rclavicle -8.15017e-015 -4.37326e-014
rhumerus -30.4652 -3.21155 -80.8459
rradius 51.1441
rwrist -16.717
rhand -22.1223 12.5216
rfingers 7.12502
rthumb 4.29065 -17.4149
lclavicle -8.15017e-015 -4.37326e-014
lhumerus -38.5687 7.1444 85.0925
lradius 41.0621
lwrist 3.76852
lhand -22.35 22.8438
lfingers 7.12502
lthumb 4.07075 52.7847
rfemur -8.46282 -8.1471 31.6969
rtibia 30.8172
rfoot -20.3915 -1.35174
rtoes 21.043
lfemur -20.9031 10.4977 -7.69289
ltibia 64.7321
lfoot -16.9587 1.69116
ltoes -8.61947
1084
root -0.778135 17.4193 -1.11085 -178.68 -2.3011 -171.78
lowerback 9.89639 0.486641 7.0251
upperback 4.45081 0.560069 4.84044
thorax -0.839884 -0.0198212 1.03162
lowerneck -9.65065 -1.17696 -10.9501
upperneck 38.1686 -8.23509 8.16149
head 15.8884 -5.73408 3.70037
rclavicle -1.35174e-014 -6.20208e-014
rhumerus -30.6398 -3.2234 -80.8714
rradius 50.8851
rwrist -16.6103
rhand -22.0404 12.9168
rfingers 7.12502
rthumb 4.36979 -17.0182
lclavicle -1.35174e-014 -6.20208e-014
lhumerus -38.4953 6.97999 85.1612
lradius 41.6535
lwrist 3.90581
lhand -23.2087 23.9516
lfingers 7.12502
lthumb 3.24159 53.9067
rfemur -8.1456 -7.68729 31.8073
rtibia 30.4757
rfoot -20.244 -1.46256
rtoes 22.3522
lfemur -21.7561 10.2189 -7.5696
ltibia 65.2971
lfoot -16.6669 0.121957
ltoes -9.22473
1085
root -0.780045 17.4239 -1.1548 -178.727 -2.00932 -171.931
lowerback 10.0261 0.463751 6.84873
upperback 4.34093 0.549653 4.83475
thorax -1.03107 -0.0273334 1.12497
lowerneck -9.43988 -1.01309 -11.0914
upperneck 38.1741 -8.09552 8.33931
head 15.8338 -5.70217 3.82861
rclavicle -3.18055e-015 -2.94201e-014
rhumerus -30.9534 -2.95549 -80.9148
rradius 50.5464
rwrist -16.3807
rhand -22.2771 13.5525
rfingers 7.12502
rthumb 4.14114 -16.387
lclavicle -3.18055e-015 -2.94201e-014
lhumerus -38.5441 6.8874 85.2066
lradius 42.1399
lwrist 4.32712
lhand -23.158 22.8482
lfingers 7.12502
lthumb 3.29054 52.8025
rfemur -7.72858 -7.186 31.6008
rtibia 30.1374
rfoot -20.2279 -1.26954
rtoes 22.8613
lfemur -22.4439 9.96295 -7.71267
ltibia 65.659
lfoot -16.298 -0.92474
ltoes -9.08353
1086
root -0.787534 17.431 -1.20273 -178.684 -1.62459 -172.133
lowerback 9.98905 0.500886 6.61575
upperback 4.26268 0.593712 4.84405
thorax -1.09727 -0.00473185 1.25927
lowerneck -9.16683 -0.933114 -11.1293
upperneck 38.0513 -7.96921 8.29259
head 15.6834 -5.67221 3.83671
rclavicle -1.13307e-014 -4.53229e-014
rhumerus -31.1374 -2.70249 -80.9234
rradius 50.1188
rwrist -16.0368
rhand -22.73 13.7463
rfingers 7.12502
rthumb 3.70384 -16.2012
lclavicle -1.13307e-014 -4.53229e-014
lhumerus -38.6017 6.7169 85.3809
lradius 42.8139
lwrist 4.87278
lhand -21.8132 20.8427
lfingers 7.12502
lthumb 4.58917 50.773
rfemur -7.3386 -7.01819 31.3246
rtibia 29.8006
rfoot -20.306 -1.05734
rtoes 21.1192
lfemur -23.1491 9.82291 -7.96808
ltibia 65.8539
lfoot -16.1514 -1.67743
ltoes -8.79966
1087
root -0.794589 17.4331 -1.25309 -178.692 -1.25545 -172.002
lowerback 9.9331 0.590699 6.79859
upperback 4.26312 0.711843 4.91116
thorax -1.05878 0.0504421 1.21547
lowerneck -9.247 -0.965515 -11.1785
upperneck 38.0961 -8.00847 8.27454
head 15.7335 -5.69975 3.82956
rclavicle 8.54774e-015 3.81667e-014
rhumerus -31.2268 -2.63592 -80.8805
rradius 49.8557
rwrist -15.8347
rhand -22.9281 13.5581
rfingers 7.12502
rthumb 3.5125 -16.3927
lclavicle 8.54774e-015 3.81667e-014
lhumerus -38.5304 6.18546 85.7377
lradius 43.317
lwrist 6.41209
lhand -23.2869 19.9019
lfingers 7.12502
lthumb 3.16602 49.8581
rfemur -6.93323 -6.75269 31.3974
rtibia 29.5107
rfoot -20.4803 -0.780304
rtoes 21.7546
lfemur -23.7389 9.68359 -7.81918
ltibia 65.9395
lfoot -16.1522 -2.63518
ltoes -6.15343
1088
root -0.799739 17.4285 -1.29904 -178.808 -0.95062 -171.743
lowerback 10.0551 0.637763 7.09825
upperback 4.27978 0.786589 5.01983
thorax -1.09845 0.0765599 1.1552
lowerneck -9.45701 -0.971695 -11.3754
upperneck 38.2288 -8.03112 8.38911
head 15.8725 -5.72854 3.9097
rclavicle -1.15295e-014 -2.46493e-014
rhumerus -31.2733 -2.44877 -80.8282
rradius 49.6879
rwrist -15.9766
rhand -22.7781 13.4056
rfingers 7.12502
rthumb 3.65739 -16.5428
lclavicle -1.15295e-014 -2.46493e-014
lhumerus -38.4849 6.18948 85.6693
lradius 44.0632
lwrist 5.61338
lhand -23.384 23.538
lfingers 7.12502
lthumb 3.07225 53.4956
rfemur -6.45798 -6.36789 31.6324
rtibia 29.2697
rfoot -20.6091 -0.731172
rtoes 24.0921
lfemur -24.3091 9.42014 -7.48781
ltibia 65.9703
lfoot -16.0806 -3.29256
ltoes -3.97517
1089
root -0.802959 17.4221 -1.34087 -178.822 -0.75842 -171.8
lowerback 10.1222 0.634425 6.99877
upperback 4.25859 0.777899 5.07714
thorax -1.16085 0.066728 1.27121
lowerneck -9.53908 -0.9283 -11.496
upperneck 38.2779 -7.93357 8.38686
head 15.9085 -5.70821 3.94579
rclavicle -1.09332e-014 -3.49861e-014
rhumerus -31.1785 -2.19457 -80.7969
rradius 49.3485
rwrist -16.1278
rhand -22.6185 13.3139
rfingers 7.12502
rthumb 3.81151 -16.6317
lclavicle -1.09332e-014 -3.49861e-014
lhumerus -38.4472 5.84306 85.9429
lradius 44.3396
lwrist 7.02675
lhand -24.2761 22.6663
lfingers 7.12502
lthumb 2.21073 52.6346
rfemur -6.12139 -6.07999 31.5722
rtibia 29.0356
rfoot -20.672 -0.91782
rtoes 25.0931
lfemur -25.0476 9.01273 -7.56637
ltibia 65.8946
lfoot -16.016 -3.7265
ltoes -3.88159
1090
root -0.812008 17.4119 -1.38757 -178.832 -0.546089 -172.086
lowerback 10.1617 0.644678 6.79786
upperback 4.25945 0.789655 4.98566
thorax -1.18604 0.0770389 1.28558
lowerneck -9.65999 -0.920961 -11.3201
upperneck 38.2862 -7.8318 8.16071
head 15.9063 -5.65736 3.82929
rclavicle 4.37326e-015 2.46493e-014
rhumerus -31.0084 -2.15959 -80.8352
rradius 48.8692
rwrist -16.122
rhand -22.3444 13.3905
rfingers 7.12502
rthumb 4.07618 -16.5503
lclavicle 4.37326e-015 2.46493e-014
lhumerus -38.2362 5.77371 85.8301
lradius 44.7159
lwrist 6.24729
lhand -21.5777 23.8459
lfingers 7.12502
lthumb 4.81652 53.7712
rfemur -5.75451 -6.09239 31.1958
rtibia 28.8094
rfoot -20.7899 -0.821173
rtoes 24.1911
lfemur -25.6589 8.64502 -7.94979
ltibia 65.6847
lfoot -16.0783 -3.91937
ltoes -4.66844
1091
root -0.823285 17.4132 -1.44199 -179.005 -0.193819 -172.188
lowerback 10.3221 0.660954 6.83863
upperback 4.31207 0.824089 4.87899
thorax -1.2154 0.0947631 1.14761
lowerneck -9.63331 -0.877295 -11.1017
upperneck 38.2182 -7.71818 7.98594
head 15.8275 -5.59388 3.73092
rclavicle -1.78906e-015 -4.69132e-014
rhumerus -31.0461 -2.1838 -80.976
rradius 48.5788
rwrist -16.0836
rhand -22.0243 13.53
rfingers 7.12502
rthumb 4.38532 -16.4046
lclavicle -1.78906e-015 -4.69132e-014
lhumerus -38.0985 5.64016 85.6771
lradius 45.0742
lwrist 6.38823
lhand -22.5168 24.8703
lfingers 7.12502
lthumb 3.90976 54.8142
rfemur -5.22242 -6.06911 30.9672
rtibia 28.6353
rfoot -20.9493 -0.555776
rtoes 23.363
lfemur -26.0375 8.34273 -8.0784
ltibia 65.3439
lfoot -16.1231 -3.90865
ltoes -3.9784
1092
root -0.828964 17.4182 -1.49383 -179.019 0.145393 -172.164
lowerback 10.3435 -0.338906 6.72089
upperback 4.41475 1.09904 4.77673
thorax -1.1917 0.921468 1.06064
lowerneck -9.56685 -0.796676 -11.1007
upperneck 38.1548 -7.64811 8.12384
head 15.7742 -5.55132 3.80295
rclavicle -1.31198e-014 -4.85035e-014
rhumerus -31.234 -2.21746 -81.1386
rradius 48.5047
rwrist -16.0225
rhand -21.9204 13.5047
rfingers 7.12502
rthumb 4.4856 -16.4278
lclavicle -1.31198e-014 -4.85035e-014
lhumerus -37.986 5.47382 85.5357
lradius 45.5463
lwrist 6.45458
lhand -23.4292 25.4672
lfingers 7.12502
lthumb 3.02866 55.4254
rfemur -4.91336 -5.83833 30.9469
rtibia 28.4696
rfoot -21.0278 -0.444084
rtoes 22.8263
lfemur -26.6211 8.02967 -8.06394
ltibia 64.9071
lfoot -16.1107 -3.86452
ltoes -2.23851
1093
root -0.832885 17.409 -1.53621 -178.877 0.472345 -172.028
lowerback 10.3673 -0.197661 6.95575
upperback 4.35115 1.30608 4.72978
thorax -1.25834 1.02054 0.857216
lowerneck -9.54536 -0.837419 -11.0292
upperneck 38.0727 -7.79524 8.32991
head 15.7564 -5.574 3.85586
rclavicle -9.34288e-015 -4.05521e-014
rhumerus -31.4079 -2.64748 -81.2011
rradius 48.4724
rwrist -16.0281
rhand -21.6353 13.5254
rfingers 7.12502
rthumb 4.76094 -16.4011
lclavicle -9.34288e-015 -4.05521e-014
lhumerus -37.845 4.85554 85.547
lradius 45.9857
lwrist 6.7443
lhand -23.6627 24.6464
lfingers 7.12502
lthumb 2.80309 54.6078
rfemur -4.78945 -5.45423 31.1177
rtibia 28.2629
rfoot -20.9604 -0.455641
rtoes 22.7921
lfemur -27.4098 7.82729 -7.92002
ltibia 64.3942
lfoot -15.9896 -3.84505
ltoes -1.97642
